<svg width="78" height="60" viewBox="0 0 78 60" fill="none" xmlns="http://www.w3.org/2000/svg">
<path id="&#226;&#128;&#156;" d="M61.2471 60C66.4111 60 70.4942 58.2477 73.4965 54.7432C76.4988 51.2387 78 47.1299 78 42.4169C78 39.1541 77.6998 36.1934 77.0993 33.5347C76.4988 30.7553 75.5982 27.5529 74.3972 23.9275L66.291 0H45.7552L55.1224 27.5529C51.5196 28.7613 48.8776 30.9366 47.1963 34.0786C45.3949 37.2206 44.4942 40.3625 44.4942 43.5045C44.4942 48.0967 46.1755 52.0242 49.5381 55.287C52.7806 58.429 56.6836 60 61.2471 60ZM16.7529 60C21.9169 60 26 58.2477 29.0023 54.7432C32.0046 51.2387 33.5058 47.1299 33.5058 42.4169C33.5058 39.1541 33.2055 36.1934 32.6051 33.5347C32.0046 30.7553 31.1039 27.5529 29.903 23.9275L21.7968 0H1.26097L10.6282 27.5529C7.0254 28.7613 4.38337 30.9366 2.70207 34.0786C0.900688 37.2206 0 40.3625 0 43.5045C0 48.0967 1.68129 52.0242 5.04388 55.287C8.28638 58.429 12.1894 60 16.7529 60Z" fill="#FF7D61"/>
</svg>
