<svg width="29" height="29" viewBox="0 0 29 29" fill="none" xmlns="http://www.w3.org/2000/svg">
<g clip-path="url(#clip0_513_262)">
<path d="M12.1593 16.5833L24.9926 3.75" stroke="white" stroke-width="2" stroke-linecap="round" stroke-linejoin="round"/>
<path d="M24.9926 3.75L17.4093 24.75C17.3581 24.8617 17.2759 24.9564 17.1725 25.0227C17.0691 25.0891 16.9488 25.1243 16.826 25.1243C16.7031 25.1243 16.5828 25.0891 16.4794 25.0227C16.376 24.9564 16.2938 24.8617 16.2426 24.75L12.1593 16.5833L3.99264 12.5C3.88094 12.4488 3.78628 12.3666 3.71992 12.2632C3.65356 12.1598 3.61829 12.0395 3.61829 11.9167C3.61829 11.7938 3.65356 11.6735 3.71992 11.5701C3.78628 11.4667 3.88094 11.3845 3.99264 11.3333L24.9926 3.75Z" stroke="white" stroke-width="2" stroke-linecap="round" stroke-linejoin="round"/>
</g>
<defs>
<clipPath id="clip0_513_262">
<rect width="28" height="28" fill="white" transform="translate(0.492615 0.25)"/>
</clipPath>
</defs>
</svg>
