<svg width="29" height="29" viewBox="0 0 29 29" fill="none" xmlns="http://www.w3.org/2000/svg">
<g clip-path="url(#clip0_443_21)">
<path d="M25.2173 14.1244C25.2173 12.0477 24.6015 10.0176 23.4477 8.29091C22.294 6.56419 20.6541 5.21838 18.7355 4.42366C16.8168 3.62894 14.7056 3.421 12.6688 3.82615C10.632 4.23129 8.76112 5.23132 7.29267 6.69977C5.82422 8.16822 4.82419 10.0391 4.41904 12.0759C4.0139 14.1127 4.22183 16.2239 5.01655 18.1426C5.81127 20.0612 7.15709 21.7011 8.8838 22.8548C10.6105 24.0086 12.6406 24.6244 14.7173 24.6244" stroke="white" stroke-width="2" stroke-linecap="round" stroke-linejoin="round"/>
<path d="M11.2173 11.791H11.229" stroke="white" stroke-width="2" stroke-linecap="round" stroke-linejoin="round"/>
<path d="M18.2173 11.791H18.229" stroke="white" stroke-width="2" stroke-linecap="round" stroke-linejoin="round"/>
<path d="M11.8006 17.6244C12.5683 18.4084 13.6206 18.7911 14.7173 18.7911" stroke="white" stroke-width="2" stroke-linecap="round" stroke-linejoin="round"/>
<path d="M18.2173 21.1244C18.2173 22.0526 18.586 22.9429 19.2424 23.5993C19.8988 24.2556 20.789 24.6244 21.7173 24.6244C22.6455 24.6244 23.5358 24.2556 24.1922 23.5993C24.8485 22.9429 25.2173 22.0526 25.2173 21.1244C25.2173 20.1961 24.8485 19.3059 24.1922 18.6495C23.5358 17.9931 22.6455 17.6244 21.7173 17.6244C20.789 17.6244 19.8988 17.9931 19.2424 18.6495C18.586 19.3059 18.2173 20.1961 18.2173 21.1244Z" stroke="white" stroke-width="2" stroke-linecap="round" stroke-linejoin="round"/>
<path d="M24.2839 23.691L26.3839 25.791" stroke="white" stroke-width="2" stroke-linecap="round" stroke-linejoin="round"/>
</g>
<defs>
<clipPath id="clip0_443_21">
<rect width="28" height="28" fill="white" transform="translate(0.717285 0.12439)"/>
</clipPath>
</defs>
</svg>
