<svg width="165" height="60" viewBox="0 0 165 60" fill="none" xmlns="http://www.w3.org/2000/svg">
<circle cx="30" cy="30" r="30" fill="#FF7D61"/>
<path fill-rule="evenodd" clip-rule="evenodd" d="M40.2803 28.2959C36.9594 28.597 33.6587 29.8509 29.94 32.224C23.7118 36.1985 17.1914 43.3645 14.0081 49.7331C13.7096 50.3305 13.6697 50.4499 13.7512 50.504C13.8911 50.5969 38.3018 50.5924 39.2253 50.4992C44.3097 49.9865 48.1287 47.1652 49.8228 42.6705C50.7263 40.2734 50.8185 37.2886 50.0638 34.8709C49.5735 33.3002 48.8653 32.0984 47.7719 30.9809C46.051 29.2224 44.0738 28.3893 41.4044 28.2982C40.9451 28.2825 40.4393 28.2815 40.2803 28.2959Z" fill="#0F141C"/>
<path fill-rule="evenodd" clip-rule="evenodd" d="M13.792 10.3515C13.7313 10.4136 13.7143 13.784 13.7143 25.7869C13.7143 34.9695 13.7376 41.1429 13.7722 41.1429C13.8041 41.1429 14.1119 40.8767 14.4564 40.5512C16.9493 38.1959 20.2135 35.7271 23.3125 33.8532C23.7434 33.5926 24.0869 33.3701 24.0759 33.3588C24.0648 33.3476 22.6683 33.6588 20.9724 34.0506C19.2765 34.4424 17.8617 34.7536 17.8284 34.7422C17.795 34.7308 17.9226 34.6595 18.1118 34.5836C18.301 34.5077 19.4582 34.0017 20.6833 33.4591C24.1958 31.9035 25.5554 31.3048 25.7279 31.2377C25.816 31.2034 25.8743 31.1614 25.8575 31.1443C25.8303 31.1164 19.0925 30.4535 17.8193 30.3533C17.5393 30.3313 17.2603 30.2951 17.1993 30.2728C17.1382 30.2505 18.8996 30.0598 21.1134 29.849C26.3913 29.3463 25.9275 29.3996 25.7749 29.3142C25.7049 29.275 23.8648 28.4574 21.686 27.4973C19.5071 26.5372 17.7314 25.7447 17.74 25.7363C17.7526 25.7238 25.8566 27.5766 26.2717 27.6868C26.335 27.7036 26.378 27.6922 26.3672 27.6615C26.3564 27.6309 24.8584 26.2668 23.0382 24.6301C21.2179 22.9935 19.7143 21.6389 19.6968 21.6198C19.648 21.5666 19.5604 21.514 23.5712 23.9449C25.6495 25.2045 27.3629 26.2221 27.3786 26.206C27.3942 26.19 26.4418 24.511 25.262 22.475C22.7724 18.1786 22.8465 18.3076 22.8917 18.3499C22.9107 18.3678 24.235 19.9063 25.8345 21.7688C27.4339 23.6314 28.7652 25.1636 28.7929 25.1738C28.8205 25.184 28.7479 24.7591 28.6317 24.2295C28.5154 23.6999 28.0787 21.7135 27.661 19.8152C27.2435 17.9168 26.9083 16.3564 26.9162 16.3476C26.9241 16.3388 27.6983 18.1558 28.6366 20.3852C30.4015 24.5791 30.4505 24.6925 30.4818 24.6561C30.4921 24.6441 30.6825 22.6197 30.905 20.1575C31.1274 17.6952 31.3272 15.7317 31.349 15.7942C31.3708 15.8567 31.4062 16.1422 31.4277 16.4288C31.5256 17.7316 32.1735 24.6259 32.2007 24.6537C32.2175 24.6709 32.2573 24.6148 32.2892 24.5293C32.3334 24.4108 35.0891 17.8593 35.6279 16.5916C35.6812 16.4662 35.7272 16.3956 35.73 16.4346C35.7328 16.4736 35.3071 18.4509 34.784 20.8285C33.954 24.6 33.811 25.3126 33.9101 25.1824C33.9822 25.0876 39.594 18.5527 39.6935 18.4476C39.7614 18.376 39.6388 18.625 39.4211 19.0011C36.5921 23.8893 35.564 25.6631 35.4058 25.9292C35.2519 26.188 35.2382 26.2389 35.3327 26.2021C35.4452 26.1583 42.2073 22.0748 42.6883 21.7603C42.8195 21.6744 42.927 21.6167 42.927 21.6319C42.927 21.6471 41.3502 23.0867 39.423 24.8311C37.4958 26.5754 35.9285 28.0122 35.9401 28.0241C35.9516 28.0359 36.5189 27.8709 37.2006 27.6574C38.784 27.1615 40.7149 26.6322 42.1853 26.291C44.0577 25.8564 43.8705 25.9417 44.1825 25.3813C45.0304 23.8582 45.4286 22.2775 45.4286 20.4338C45.4286 18.1414 44.7874 16.1659 43.4531 14.3465C42.0053 12.3728 39.9486 11.0331 37.4854 10.4594L36.849 10.3113L25.3593 10.2916C16.3773 10.2762 13.8527 10.2893 13.792 10.3515Z" fill="#0F141C"/>
<path d="M82.831 44.468C80.699 44.468 78.84 44.026 77.254 43.142C75.694 42.258 74.485 41.01 73.627 39.398C72.769 37.76 72.34 35.849 72.34 33.665V15.53H77.683V26.567H77.722C78.138 25.969 78.645 25.449 79.243 25.007C79.867 24.565 80.556 24.227 81.31 23.993C82.09 23.759 82.896 23.642 83.728 23.642C85.678 23.642 87.368 24.071 88.798 24.929C90.228 25.787 91.333 26.97 92.113 28.478C92.919 29.96 93.322 31.689 93.322 33.665C93.322 35.225 93.088 36.668 92.62 37.994C92.152 39.294 91.476 40.438 90.592 41.426C89.708 42.388 88.616 43.142 87.316 43.688C86.016 44.208 84.521 44.468 82.831 44.468ZM82.831 39.905C83.897 39.905 84.807 39.645 85.561 39.125C86.315 38.605 86.887 37.903 87.277 37.019C87.693 36.135 87.901 35.147 87.901 34.055C87.901 32.963 87.693 31.975 87.277 31.091C86.887 30.207 86.315 29.505 85.561 28.985C84.807 28.465 83.897 28.205 82.831 28.205C81.791 28.205 80.881 28.465 80.101 28.985C79.347 29.505 78.762 30.207 78.346 31.091C77.956 31.975 77.761 32.963 77.761 34.055C77.761 35.147 77.956 36.135 78.346 37.019C78.762 37.903 79.347 38.605 80.101 39.125C80.881 39.645 81.791 39.905 82.831 39.905ZM97.2147 44V24.11H102.597V44H97.2147ZM99.9057 21.731C98.9957 21.731 98.2027 21.406 97.5267 20.756C96.8767 20.08 96.5517 19.287 96.5517 18.377C96.5517 17.467 96.8767 16.687 97.5267 16.037C98.2027 15.361 98.9957 15.023 99.9057 15.023C100.816 15.023 101.596 15.361 102.246 16.037C102.922 16.687 103.26 17.467 103.26 18.377C103.26 19.287 102.922 20.08 102.246 20.756C101.596 21.406 100.816 21.731 99.9057 21.731ZM117.167 44.468C115.113 44.468 113.28 44.013 111.668 43.103C110.056 42.167 108.782 40.919 107.846 39.359C106.91 37.773 106.442 36.005 106.442 34.055C106.442 32.105 106.91 30.35 107.846 28.79C108.782 27.204 110.056 25.956 111.668 25.046C113.28 24.11 115.113 23.642 117.167 23.642C119.221 23.642 121.054 24.11 122.666 25.046C124.278 25.956 125.552 27.204 126.488 28.79C127.424 30.35 127.892 32.105 127.892 34.055C127.892 36.005 127.424 37.773 126.488 39.359C125.552 40.919 124.278 42.167 122.666 43.103C121.054 44.013 119.221 44.468 117.167 44.468ZM117.167 39.905C118.259 39.905 119.195 39.645 119.975 39.125C120.781 38.605 121.392 37.903 121.808 37.019C122.25 36.135 122.471 35.147 122.471 34.055C122.471 32.963 122.25 31.975 121.808 31.091C121.392 30.207 120.781 29.505 119.975 28.985C119.195 28.465 118.259 28.205 117.167 28.205C116.075 28.205 115.126 28.465 114.32 28.985C113.54 29.505 112.929 30.207 112.487 31.091C112.071 31.975 111.863 32.963 111.863 34.055C111.863 35.147 112.071 36.135 112.487 37.019C112.929 37.903 113.54 38.605 114.32 39.125C115.126 39.645 116.075 39.905 117.167 39.905ZM134.8 51.917V47.354H145.018C145.382 47.354 145.681 47.224 145.915 46.964C146.149 46.73 146.266 46.444 146.266 46.106V41.231H146.227C145.629 41.907 145.018 42.453 144.394 42.869C143.77 43.285 143.094 43.597 142.366 43.805C141.664 43.987 140.884 44.078 140.026 44.078C138.258 44.078 136.659 43.662 135.229 42.83C133.825 41.972 132.707 40.776 131.875 39.242C131.043 37.708 130.627 35.927 130.627 33.899C130.627 31.975 131.03 30.246 131.836 28.712C132.668 27.152 133.864 25.917 135.424 25.007C136.984 24.097 138.882 23.642 141.118 23.642C143.276 23.642 145.135 24.084 146.695 24.968C148.255 25.852 149.464 27.1 150.322 28.712C151.18 30.324 151.609 32.235 151.609 34.445V46.262C151.609 48.004 151.102 49.382 150.088 50.396C149.1 51.41 147.722 51.917 145.954 51.917H134.8ZM141.118 39.515C142.184 39.515 143.094 39.268 143.848 38.774C144.602 38.28 145.174 37.63 145.564 36.824C145.98 35.992 146.188 35.069 146.188 34.055C146.188 32.963 145.98 31.975 145.564 31.091C145.174 30.207 144.602 29.505 143.848 28.985C143.094 28.465 142.184 28.205 141.118 28.205C140.078 28.205 139.168 28.465 138.388 28.985C137.634 29.479 137.049 30.155 136.633 31.013C136.243 31.871 136.048 32.833 136.048 33.899C136.048 34.939 136.243 35.888 136.633 36.746C137.049 37.578 137.634 38.254 138.388 38.774C139.168 39.268 140.078 39.515 141.118 39.515ZM156.476 44V24.11H161.858V44H156.476ZM159.167 21.731C158.257 21.731 157.464 21.406 156.788 20.756C156.138 20.08 155.813 19.287 155.813 18.377C155.813 17.467 156.138 16.687 156.788 16.037C157.464 15.361 158.257 15.023 159.167 15.023C160.077 15.023 160.857 15.361 161.507 16.037C162.183 16.687 162.521 17.467 162.521 18.377C162.521 19.287 162.183 20.08 161.507 20.756C160.857 21.406 160.077 21.731 159.167 21.731Z" fill="white"/>
</svg>
